<?xml version="1.0" encoding="UTF-8"?>
<svg version="1.1" xmlns="http://www.w3.org/2000/svg" width="2048" height="1536">
<path d="M0 0 C675.84 0 1351.68 0 2048 0 C2048 506.88 2048 1013.76 2048 1536 C1372.16 1536 696.32 1536 0 1536 C0 1029.12 0 522.24 0 0 Z " fill="#F3EEFD" transform="translate(0,0)"/>
<path d="M0 0 C0.78671082 0.00163902 1.57342163 0.00327805 2.38397217 0.00496674 C4.31132437 0.00921905 6.23867134 0.01573366 8.16601562 0.02270508 C8.3436824 28.29347562 8.50908743 56.56431194 8.66601562 84.83520508 C8.67196416 85.90453246 8.6779127 86.97385984 8.6840415 88.07559109 C9.08296374 159.93324233 9.25752761 231.78896773 9.22851562 303.64770508 C9.22787928 305.27156529 9.22787928 305.27156529 9.22723007 306.92823076 C9.21632122 334.29306447 9.19654846 361.65788625 9.16601562 389.02270508 C6.5963505 389.02883989 4.02670017 389.03332579 1.45703125 389.03686523 C0.73292053 389.03876358 0.00880981 389.04066193 -0.73724365 389.0426178 C-50.39209209 389.09390682 -95.19691453 363.91917968 -129.83398438 330.02270508 C-132.32502116 327.46195644 -134.60805612 324.81542063 -136.83398438 322.02270508 C-137.94773437 320.66532227 -137.94773437 320.66532227 -139.08398438 319.28051758 C-167.95528963 283.46083624 -181.36331456 239.51521068 -181.14648438 193.89770508 C-181.14466156 193.09488098 -181.14283875 192.29205688 -181.14096069 191.46490479 C-181.01447618 158.21060195 -173.72279767 127.33538352 -157.83398438 98.02270508 C-157.269375 96.97727539 -156.70476562 95.9318457 -156.12304688 94.85473633 C-132.54179136 52.95095599 -91.6742921 20.13687528 -45.41943359 6.71508789 C-30.42782281 2.70033735 -15.52581115 -0.06169217 0 0 Z " fill="#8659F0" transform="translate(308.833984375,575.977294921875)"/>
<path d="M0 0 C15.91059598 -0.80500039 31.2886452 5.7931691 43.1875 15.9921875 C57.34533793 29.6157674 64.20679505 48.37115409 64.66381836 67.71582031 C64.83498093 89.58933783 59.37442944 109.92627214 44.24609375 126.40234375 C31.87553226 138.17312044 15.62266987 143.80057999 -1.25708008 143.66162109 C-18.75882396 143.05521217 -30.57462873 135.35505877 -42.6875 123.2421875 C-43.0175 150.6321875 -43.3475 178.0221875 -43.6875 206.2421875 C-55.2375 206.2421875 -66.7875 206.2421875 -78.6875 206.2421875 C-78.6875 139.2521875 -78.6875 72.2621875 -78.6875 3.2421875 C-67.4675 3.2421875 -56.2475 3.2421875 -44.6875 3.2421875 C-44.6875 9.5121875 -44.6875 15.7821875 -44.6875 22.2421875 C-44.0275 22.2421875 -43.3675 22.2421875 -42.6875 22.2421875 C-42.30464844 21.36820313 -42.30464844 21.36820313 -41.9140625 20.4765625 C-36.84484277 11.2421877 -25.19252532 5.82433132 -15.6875 2.2421875 C-10.45545619 0.84312164 -5.36567357 0.48353454 0 0 Z " fill="#161C47" transform="translate(1229.6875,708.7578125)"/>
<path d="M0 0 C11.88 0 23.76 0 36 0 C36 61.05 36 122.1 36 185 C24.12 185 12.24 185 0 185 C-0.495 176.09 -0.495 176.09 -1 167 C-2.36125 168.505625 -3.7225 170.01125 -5.125 171.5625 C-16.13311025 182.5240315 -30.59792018 187.15679725 -45.9375 187.4375 C-62.27457005 187.31428254 -77.29485601 180.23163493 -89 169 C-105.6137005 150.26254167 -109.27153223 128.1727847 -108 104 C-106.23666597 85.91695031 -97.84906238 68.88196209 -83.9453125 57.0703125 C-67.86495189 45.76714125 -50.26853534 42.46584147 -30.81396484 45.32080078 C-27.31787668 46.10034035 -24.18531557 47.38617733 -21 49 C-20.22398437 49.36222656 -19.44796875 49.72445312 -18.6484375 50.09765625 C-12.65749342 53.13430317 -4.06244981 57.87510038 -1 64 C-0.67 42.88 -0.34 21.76 0 0 Z " fill="#181D47" transform="translate(765,665)"/>
<path d="M0 0 C18.6214511 0 18.6214511 0 26.5 2.5 C27.38091309 2.76699707 28.26182617 3.03399414 29.16943359 3.30908203 C53.57873025 11.04495143 76.41675573 28.09806177 88.90185547 50.78759766 C94.25253059 61.56745936 98.41767694 72.92971778 99 85 C99.04406982 85.90532471 99.08813965 86.81064941 99.13354492 87.7434082 C99.99169021 111.09736212 96.43815434 132.9236821 82 152 C81.50242187 152.69867187 81.00484375 153.39734375 80.4921875 154.1171875 C64.9848073 175.16826883 43.41605488 187.66509074 18 193 C17.10152344 193.19980469 16.20304687 193.39960937 15.27734375 193.60546875 C10.21971299 194.21431345 5.09414574 194 0 194 C0 129.98 0 65.96 0 0 Z " fill="#FEC301" transform="translate(318,771)"/>
<path d="M0 0 C0 64.35 0 128.7 0 195 C-16 195 -16 195 -20 193 C-21.99110401 192.61709538 -23.99100513 192.27395385 -26 192 C-26 191.34 -26 190.68 -26 190 C-26.66644531 189.92523437 -27.33289063 189.85046875 -28.01953125 189.7734375 C-36.51868087 188.5609714 -44.61827952 185.91567635 -50.375 179.25 C-51.179375 178.13625 -51.179375 178.13625 -52 177 C-52.70125 176.77441406 -53.4025 176.54882812 -54.125 176.31640625 C-58.46002425 174.33148346 -61.32332552 171.06978177 -64.625 167.6875 C-65.29273438 167.02298828 -65.96046875 166.35847656 -66.6484375 165.67382812 C-75 157.23039844 -75 157.23039844 -75 152 C-75.66 152 -76.32 152 -77 152 C-77.10957031 151.38511719 -77.21914062 150.77023437 -77.33203125 150.13671875 C-77.49058594 149.32847656 -77.64914063 148.52023437 -77.8125 147.6875 C-77.96332031 146.88699219 -78.11414063 146.08648438 -78.26953125 145.26171875 C-79.08770657 142.72843795 -80.0729695 141.77608816 -82 140 C-83.3035334 136.81358502 -84.00234441 133.98157964 -84.4375 130.5625 C-85.05656568 126.64175071 -86.40944899 123.6264563 -88 120 C-90.21814326 112.98391644 -90.34617171 106.32614831 -90.3125 99 C-90.30976074 97.80697266 -90.30702148 96.61394531 -90.30419922 95.38476562 C-90.04703988 73.57055982 -90.04703988 73.57055982 -85 66 C-84.60986284 64.0103005 -84.26797351 62.00980131 -84 60 C-83.34 60 -82.68 60 -82 60 C-81.89558594 59.31035156 -81.79117188 58.62070312 -81.68359375 57.91015625 C-78.2400089 43.25032362 -67.33245962 31.23995152 -56 22 C-53.26780762 19.53726385 -53.26780762 19.53726385 -50.54296875 17.06640625 C-49 16 -49 16 -46 16 C-46 15.34 -46 14.68 -46 14 C-38.67121149 8.06232413 -30.25090086 3.78946614 -21 2 C-19.58654297 1.7215625 -19.58654297 1.7215625 -18.14453125 1.4375 C-11.83314559 0.28561212 -6.58461513 0 0 0 Z " fill="#FD3F7D" transform="translate(318,770)"/>
<path d="M0 0 C1.15886719 0.474375 2.31773438 0.94875 3.51171875 1.4375 C18.67434218 8.25658254 29.28708334 19.22306518 35.5625 34.7265625 C41.04651447 49.52716974 40 59.62149663 40 77 C6.67 77 -26.66 77 -61 77 C-58.74250928 88.28745362 -56.04349743 97.13433049 -46.1875 103.75 C-37.92939744 108.53262551 -28.20658429 109.54765726 -18.9609375 107.2421875 C-12.04346229 104.87421081 -7.29454302 102.56295181 -3.91723633 95.90820312 C-1.63991335 92.23617271 -1.63991335 92.23617271 0.91372681 91.29370117 C3.24723018 91.07376445 5.45997831 91.0987441 7.80078125 91.21875 C9.0553437 91.23572937 9.0553437 91.23572937 10.33525085 91.25305176 C12.99670308 91.29770444 15.65268843 91.39802332 18.3125 91.5 C20.12036466 91.5401424 21.92831413 91.57664188 23.73632812 91.609375 C28.15964618 91.69740071 32.57889774 91.83535249 37 92 C34.81323075 100.05178132 31.86155252 106.1917219 27 113 C26.54882812 113.63808594 26.09765625 114.27617188 25.6328125 114.93359375 C15.86160038 127.45115247 0.09889002 134.95733026 -15.30859375 137.55859375 C-33.86263461 139.77722509 -54.38563933 137.34052614 -69.66503906 125.73535156 C-86.50514926 111.97514353 -94.46483671 94.34366049 -97 73 C-98.2372649 52.27581299 -93.48427885 32.3885097 -79.71484375 16.3359375 C-60.23815656 -4.09760754 -26.26810076 -11.567604 0 0 Z " fill="#161C46" transform="translate(1826,714)"/>
<path d="M0 0 C1.92767212 0.01135986 1.92767212 0.01135986 3.89428711 0.02294922 C12.80781144 0.17822328 20.44876147 0.81471224 28.6875 4.4375 C29.71101563 4.86160156 30.73453125 5.28570313 31.7890625 5.72265625 C47.45837482 12.8432678 58.18191423 24.94882137 64.69140625 40.73828125 C65.18447266 42.07439453 65.18447266 42.07439453 65.6875 43.4375 C66.00589844 44.27667969 66.32429688 45.11585938 66.65234375 45.98046875 C69.78950089 55.99913186 71.05305507 71.3408348 67.6875 81.4375 C34.6875 81.4375 1.6875 81.4375 -32.3125 81.4375 C-30.18088353 92.09558233 -28.23534805 100.10546606 -19.52734375 106.96484375 C-11.23101216 112.4810995 -3.16237931 113.51344402 6.6875 112.4375 C14.35755537 110.80083414 19.901995 107.69246713 24.6875 101.4375 C25.03466064 100.58381836 25.38182129 99.73013672 25.73950195 98.85058594 C27.6875 96.4375 27.6875 96.4375 31.51635742 95.86987305 C33.10878066 95.87066376 34.70134162 95.89886542 36.29296875 95.94921875 C37.55177605 95.95983086 37.55177605 95.95983086 38.83601379 95.97065735 C41.51658259 95.99864833 44.19506267 96.06139199 46.875 96.125 C48.69202712 96.15007695 50.50908699 96.17289118 52.32617188 96.19335938 C56.78075278 96.24849001 61.23377229 96.33479217 65.6875 96.4375 C60.14159584 114.13297433 49.69275915 127.10230914 33.3515625 135.81640625 C15.26901177 144.28005818 -6.59726737 145.07050434 -25.3125 138.4375 C-41.364738 132.18646975 -54.04738556 120.6059562 -61.5625 105.0625 C-69.98868197 85.82833528 -71.65370262 62.34345326 -64.3125 42.4375 C-56.94606746 24.80824892 -45.59078194 13.36790755 -28.625 4.76171875 C-19.05283582 0.93511066 -10.28362234 -0.08449536 0 0 Z " fill="#161C46" transform="translate(1543.3125,709.5625)"/>
<path d="M0 0 C11.55 0 23.1 0 35 0 C35 20.79 35 41.58 35 63 C35.66 63 36.32 63 37 63 C37.24878906 62.41089844 37.49757813 61.82179688 37.75390625 61.21484375 C42.46331177 52.84420761 53.56996234 48.92482678 62.140625 45.88671875 C77.41528821 42.37725666 93.86322638 44.18935267 107.4375 51.9375 C108.97212453 52.93748114 110.49480229 53.95624976 112 55 C113.051875 55.721875 114.10375 56.44375 115.1875 57.1875 C129.12960258 71.12960258 132.19488753 89.44670706 132.23232841 108.30383587 C132.22643999 111.11537893 132.21106866 113.92677764 132.1953125 116.73828125 C132.1915745 118.71510168 132.18873125 120.69192399 132.18673706 122.66874695 C132.17916255 127.82910429 132.15956837 132.98934601 132.1373291 138.1496582 C132.11673625 143.43243853 132.10770682 148.71523784 132.09765625 153.99804688 C132.07631564 164.33208978 132.04118513 174.66601711 132 185 C120.45 185 108.9 185 97 185 C96.970271 181.25378296 96.970271 181.25378296 96.93994141 177.43188477 C96.87287724 169.15769767 96.79524037 160.88363373 96.71247292 152.60958958 C96.66263884 147.59562989 96.61630808 142.58168997 96.578125 137.56762695 C96.54110887 132.72404002 96.49470554 127.88062378 96.44193649 123.03718376 C96.42347899 121.19416247 96.40833953 119.35110471 96.39665604 117.50802803 C96.37964471 114.91606487 96.35057565 112.32448531 96.31884766 109.73266602 C96.31668747 108.97956146 96.31452728 108.22645691 96.31230164 107.45053101 C96.14971255 96.97640583 93.71478817 88.8244344 86.3125 81.25 C78.36168112 75.29697571 69.74340081 73.84062899 60 75 C53.73256545 76.49491105 47.05011594 78.7254304 43 84 C37.9522279 92.57168847 35.86892552 99.37768998 35.79467773 109.27856445 C35.78477814 110.09859451 35.77487854 110.91862457 35.76467896 111.76350403 C35.73319047 114.46340079 35.70835673 117.16331513 35.68359375 119.86328125 C35.66301329 121.73944038 35.64201653 123.61559499 35.62062073 125.491745 C35.56551285 130.4219699 35.51605393 135.35223587 35.46777344 140.28253174 C35.41747589 145.31664673 35.36183296 150.35070234 35.30664062 155.38476562 C35.19919709 165.25646149 35.09821579 175.12820801 35 185 C23.45 185 11.9 185 0 185 C0 123.95 0 62.9 0 0 Z " fill="#161C47" transform="translate(1319,665)"/>
<path d="M0 0 C17.57243543 -0.51785173 33.07081605 3.95817189 47.4140625 14.1953125 C48.2803125 14.7728125 49.1465625 15.3503125 50.0390625 15.9453125 C57.20686646 22.73586362 62.01401751 31.65043311 64.4140625 41.1953125 C64.4140625 44.1653125 64.4140625 47.1353125 64.4140625 50.1953125 C51.8740625 50.1953125 39.3340625 50.1953125 26.4140625 50.1953125 C25.4240625 47.2253125 24.4340625 44.2553125 23.4140625 41.1953125 C19.62940162 35.46425459 14.99336046 32.6257431 8.55078125 30.61328125 C0.42383769 29.02355006 -7.35205334 29.434575 -14.55078125 33.671875 C-17.80544626 36.10818854 -19.63896468 38.28738241 -20.5859375 42.1953125 C-21.25385587 48.29184402 -21.4741122 53.93450416 -19.2109375 59.6953125 C-10.72966268 67.77271709 0.14324041 70.71762027 11.0390625 74.1328125 C20.24351809 77.03649603 29.35191499 79.98900331 38.21484375 83.83203125 C38.86043243 84.10989975 39.50602112 84.38776825 40.1711731 84.67405701 C52.18532951 90.0424753 60.89039823 99.23142649 65.59814453 111.45263672 C66.95001628 115.99689979 67.00956563 120.35841149 66.9140625 125.0703125 C66.90125244 126.03557861 66.88844238 127.00084473 66.87524414 127.99536133 C66.4690907 142.30714814 61.10522999 154.04562444 50.7265625 164.0078125 C33.93745801 178.27089671 13.45593723 179.45374737 -7.5859375 178.1953125 C-24.12679771 176.2737994 -38.7598638 168.38185998 -49.61328125 155.85546875 C-56.34010828 147.0807282 -58.5859375 138.14646739 -58.5859375 127.1953125 C-46.3759375 127.1953125 -34.1659375 127.1953125 -21.5859375 127.1953125 C-20.2659375 131.1553125 -18.9459375 135.1153125 -17.5859375 139.1953125 C-15.48580084 143.46565296 -15.48580084 143.46565296 -11.5859375 145.1953125 C-10.874375 145.54851562 -10.1628125 145.90171875 -9.4296875 146.265625 C-0.26459054 150.38991863 8.72978139 150.4326699 18.22265625 147.171875 C22.63974352 145.20347604 25.37159531 142.58526875 28.2890625 138.6953125 C30.02398272 133.29778293 30.13073337 127.80923432 29.4140625 122.1953125 C27.96888347 119.46780111 27.96888347 119.46780111 26.4140625 117.1953125 C26.4140625 116.5353125 26.4140625 115.8753125 26.4140625 115.1953125 C25.86266602 114.92340088 25.31126953 114.65148926 24.74316406 114.37133789 C23.1337531 113.55870345 21.53726906 112.72013636 19.95214844 111.86108398 C12.45176953 107.89601952 4.84726086 105.23989303 -3.25479126 102.86984253 C-43.36273344 91.0747728 -43.36273344 91.0747728 -53.44140625 74.4609375 C-59.5829204 62.303674 -60.42993364 48.17576898 -56.6796875 35.13671875 C-51.31430298 20.70766681 -41.73383566 12.0406722 -28.04296875 5.6328125 C-18.77607276 1.77945914 -9.93497688 0.54112074 0 0 Z " fill="#161C47" transform="translate(1053.5859375,672.8046875)"/>
<path d="M0 0 C33 0 66 0 100 0 C100 9.24 100 18.48 100 28 C78.22 28 56.44 28 34 28 C34 42.19 34 56.38 34 71 C53.47 71 72.94 71 93 71 C93 80.24 93 89.48 93 99 C73.53 99 54.06 99 34 99 C34 114.18 34 129.36 34 145 C55.78 145 77.56 145 100 145 C100 154.24 100 163.48 100 173 C67 173 34 173 0 173 C0 115.91 0 58.82 0 0 Z " fill="#161B46" transform="translate(534,676)"/>
<path d="M0 0 C11.55 0 23.1 0 35 0 C35.01458252 2.42641846 35.02916504 4.85283691 35.04418945 7.3527832 C35.09470938 15.40347547 35.16133441 23.45397785 35.23571491 31.50448322 C35.28028817 36.38163385 35.3195725 41.25870345 35.34643555 46.13598633 C35.37259934 50.84996939 35.41309263 55.56363843 35.46318626 60.27742577 C35.47976705 62.0685451 35.49133569 63.85971863 35.49761391 65.6509037 C35.54667642 78.37117306 35.69690048 90.57170239 44 101 C50.04864228 106.88946748 57.46665084 108.9554836 65.6875 109.25 C73.75851275 109.1300741 80.945072 107.01085018 87.24609375 101.85546875 C97.40330872 91.11008543 96.32227774 75.25222948 96.4140625 61.5234375 C96.43280126 59.74410125 96.45237663 57.96477363 96.4727478 56.18545532 C96.52378916 51.53315349 96.5635636 46.88082293 96.60089111 42.22839355 C96.64819531 36.62973219 96.70967172 31.03121022 96.76873779 25.43266296 C96.8566082 16.95516578 96.9266168 8.47769067 97 0 C108.55 0 120.1 0 132 0 C132 45.54 132 91.08 132 138 C120.12 138 108.24 138 96 138 C95.505 130.575 95.505 130.575 95 123 C93.72125 124.216875 92.4425 125.43375 91.125 126.6875 C78.46845449 137.86317045 63.53412647 139.9717752 47.19140625 139.1640625 C34.4650915 138.21129027 22.71370978 132.28722359 14 123 C3.85819702 111.01615765 -0.36532066 96.09448233 -0.22705078 80.60302734 C-0.22734283 79.72374573 -0.22763489 78.84446411 -0.22793579 77.9385376 C-0.22655734 75.07089908 -0.21106709 72.20352987 -0.1953125 69.3359375 C-0.19157708 67.33240908 -0.18873261 65.32887881 -0.18673706 63.3253479 C-0.17914229 58.08110408 -0.15952995 52.83697305 -0.1373291 47.59277344 C-0.11678066 42.22983322 -0.10771619 36.86687458 -0.09765625 31.50390625 C-0.07627975 21.00254693 -0.04113194 10.50130054 0 0 Z " fill="#161C47" transform="translate(833,712)"/>
<path d="M0 0 C0 11.88 0 23.76 0 36 C-8.415 36.495 -8.415 36.495 -17 37 C-24.34111734 38.64968929 -31.78212313 40.79137733 -36.53515625 47.0078125 C-42.76196174 57.42818087 -42.33163961 68.77273412 -42.4140625 80.50390625 C-42.43279884 82.19499124 -42.45237404 83.88606712 -42.4727478 85.57713318 C-42.52381474 90.00093182 -42.56357565 94.42476069 -42.60089111 98.84869385 C-42.64817491 104.17117319 -42.70966253 109.49350555 -42.76873779 114.81586456 C-42.85663949 122.87718287 -42.92662566 130.93847746 -43 139 C-54.22 139 -65.44 139 -77 139 C-77 93.79 -77 48.58 -77 2 C-65.78 2 -54.56 2 -43 2 C-42.67 8.6 -42.34 15.2 -42 22 C-40.02 19.36 -38.04 16.72 -36 14 C-25.97529253 3.20567916 -14.43599267 0 0 0 Z " fill="#151B45" transform="translate(1715,710)"/>
<path d="M0 0 C7.68045776 6.24037193 13.21280129 14.56987818 14.6875 24.42578125 C15.74990232 38.2686305 14.89916233 49.86188967 6.6875 61.42578125 C6.130625 62.29203125 5.57375 63.15828125 5 64.05078125 C-1.17439099 70.39204767 -9.15582451 73.9463498 -17.92578125 74.76171875 C-30.54405761 74.89496348 -37.9609128 72.57873651 -47.1171875 63.78125 C-50.13398075 60.54437041 -52.43499501 57.43265166 -54.3125 53.42578125 C-54.62960937 52.75933594 -54.94671875 52.09289062 -55.2734375 51.40625 C-57.52003119 45.5218234 -57.62075505 39.58596453 -57.6875 33.36328125 C-57.70143799 32.52442383 -57.71537598 31.68556641 -57.72973633 30.82128906 C-57.64688146 19.83279677 -53.51353628 10.7874396 -46.125 2.73828125 C-33.29301981 -9.5590331 -14.34238496 -9.76348165 0 0 Z " fill="#F2EEFD" transform="translate(750.3125,746.57421875)"/>
<path d="M0 0 C8.79677071 6.10921417 15.30185948 14.56149257 18 25 C18.30495939 28.42073749 18.32470702 31.81738711 18.3125 35.25 C18.32861328 36.14074219 18.34472656 37.03148437 18.36132812 37.94921875 C18.36975874 49.56660766 14.80139612 58.63316566 6.99609375 67.19921875 C-0.55435816 74.50654341 -8.12108264 77.16351928 -18.5625 77.5 C-29.41690018 77.13745425 -36.00552883 73.84901776 -43.8046875 66.35546875 C-46.82148075 63.11858916 -49.12249501 60.00687041 -51 56 C-51.31710937 55.33355469 -51.63421875 54.66710937 -51.9609375 53.98046875 C-56.05942705 43.2454342 -55.93408958 27.72985348 -51.26171875 17.25390625 C-40.70370103 -1.60670126 -20.18473373 -10.24423559 0 0 Z " fill="#F2EEFD" transform="translate(1240,744)"/>
<path d="M0 0 C6.09173643 4.32206998 11.14023443 9.57625425 13.78515625 16.67578125 C13.78515625 19.64578125 13.78515625 22.61578125 13.78515625 25.67578125 C-7.66484375 25.67578125 -29.11484375 25.67578125 -51.21484375 25.67578125 C-49.88097697 15.00484697 -47.08042172 8.2189071 -38.65234375 1.37109375 C-27.41110129 -6.4473345 -11.87302502 -7.09868692 0 0 Z " fill="#EEEBFA" transform="translate(1816.21484375,742.32421875)"/>
<path d="M0 0 C5.67175979 4.06743506 9.34711432 8.38256408 12.59765625 14.55859375 C13.09265625 20.00359375 13.09265625 20.00359375 13.59765625 25.55859375 C-7.85234375 25.55859375 -29.30234375 25.55859375 -51.40234375 25.55859375 C-50.27971288 15.45491591 -47.97894567 9.63866413 -40.65234375 2.68359375 C-29.14436191 -6.50107855 -12.7213832 -7.63282992 0 0 Z " fill="#EDEBFA" transform="translate(1562.40234375,742.44140625)"/>
<path d="M0 0 C11.55 0 23.1 0 35 0 C35 20.79 35 41.58 35 63 C34.67 63 34.34 63 34 63 C34 42.87 34 22.74 34 2 C23.44 2 12.88 2 2 2 C2 61.73 2 121.46 2 183 C12.56 183 23.12 183 34 183 C34 155.94 34 128.88 34 101 C34.33 101 34.66 101 35 101 C35 128.72 35 156.44 35 185 C23.45 185 11.9 185 0 185 C0 123.95 0 62.9 0 0 Z " fill="#2F314F" transform="translate(1319,665)"/>
<path d="M0 0 C0.33 0 0.66 0 1 0 C1 29.37 1 58.74 1 89 C-10.55 89 -22.1 89 -34 89 C-34 88.34 -34 87.68 -34 87 C-23.11 87 -12.22 87 -1 87 C-1.01160156 84.32261719 -1.02320313 81.64523437 -1.03515625 78.88671875 C-1.12174566 52.5755002 -0.7430832 26.30040223 0 0 Z " fill="#282B4E" transform="translate(1450,761)"/>
<path d="M0 0 C0.33 0.66 0.66 1.32 1 2 C0.34 2 -0.32 2 -1 2 C-0.938125 2.86625 -0.87625 3.7325 -0.8125 4.625 C-1 8 -1 8 -2.375 10.5625 C-6.64700342 19.59943032 -6.38699452 30.60622717 -6.375 40.4375 C-6.37556396 41.6116748 -6.37612793 42.78584961 -6.37670898 43.99560547 C-6.46123657 57.35514346 -6.46123657 57.35514346 -1 69 C-0.65362929 70.40876827 -0.34746331 71.82753854 -0.0625 73.25 C0.92945262 77.85966218 2.16427743 81.66903443 4.6875 85.6875 C5.3371875 86.8321875 5.3371875 86.8321875 6 88 C5.505 88.99 5.505 88.99 5 90 C-0.77560985 84.63575838 -2.67017713 77.55899317 -4 70 C-4.66 70 -5.32 70 -6 70 C-6.06058594 69.16855469 -6.12117187 68.33710937 -6.18359375 67.48046875 C-6.26738281 66.39378906 -6.35117188 65.30710937 -6.4375 64.1875 C-6.51871094 63.10855469 -6.59992188 62.02960937 -6.68359375 60.91796875 C-6.90212461 57.94010095 -6.90212461 57.94010095 -8 55 C-8.09525677 52.8245511 -8.1307313 50.64628241 -8.1328125 48.46875 C-8.13410156 47.18355469 -8.13539063 45.89835938 -8.13671875 44.57421875 C-8.13357666 43.57140869 -8.13357666 43.57140869 -8.13037109 42.54833984 C-8.12501943 40.50741135 -8.13032396 38.46670291 -8.13671875 36.42578125 C-8.13542969 35.14058594 -8.13414062 33.85539063 -8.1328125 32.53125 C-8.13168457 31.35111328 -8.13055664 30.17097656 -8.12939453 28.95507812 C-8 26 -8 26 -7 23 C-6.76709949 19.45042375 -6.61858544 15.90196719 -6.4765625 12.34765625 C-5.97985866 8.85851533 -5.27838475 7.58177279 -3 5 C-2.65772583 3.66893378 -2.32248257 2.33599921 -2 1 C-1.34 0.67 -0.68 0.34 0 0 Z " fill="#A152D7" transform="translate(235,828)"/>
<path d="M0 0 C0.7109375 1.62890625 0.7109375 1.62890625 1 4 C-0.3984375 6.83984375 -0.3984375 6.83984375 -2.375 9.9375 C-4.74341825 13.66941004 -6.43108486 16.58684397 -7 21 C-7.66 21 -8.32 21 -9 21 C-8.938125 22.175625 -8.87625 23.35125 -8.8125 24.5625 C-8.79961887 28.24650449 -9.62797075 30.67063785 -11.26953125 34 C-12.52660971 37.44184049 -12.57856588 41.0109586 -12.7890625 44.64453125 C-13 47 -13 47 -14 49 C-14.09825199 51.84352821 -14.13900483 54.65702042 -14.125 57.5 C-14.12886719 58.28503906 -14.13273438 59.07007813 -14.13671875 59.87890625 C-14.23807619 64.07270323 -14.23807619 64.07270323 -13 68 C-12.92966231 69.87379605 -12.9156978 71.75001102 -12.9375 73.625 C-12.94652344 74.62789062 -12.95554688 75.63078125 -12.96484375 76.6640625 C-12.97644531 77.43492187 -12.98804688 78.20578125 -13 79 C-13.33 79 -13.66 79 -14 79 C-16.16467979 71.96263463 -16.34620642 65.33369938 -16.3125 58 C-16.30976074 56.80697266 -16.30702148 55.61394531 -16.30419922 54.38476562 C-16.04703988 32.57055982 -16.04703988 32.57055982 -11 25 C-10.60986284 23.0103005 -10.26797351 21.00980131 -10 19 C-9.34 19 -8.68 19 -8 19 C-7.90847656 18.32582031 -7.81695312 17.65164063 -7.72265625 16.95703125 C-6.81647225 13.24902428 -5.18716901 10.05171507 -3.4375 6.6875 C-2.9434668 5.71973633 -2.9434668 5.71973633 -2.43945312 4.73242188 C-1.63175745 3.15214772 -0.81662387 1.57567895 0 0 Z " fill="#DB449B" transform="translate(244,811)"/>
<path d="M0 0 C1.98 1.65 3.96 3.3 6 5 C5.34 5.66 4.68 6.32 4 7 C3.34 6.67 2.68 6.34 2 6 C2 31.08 2 56.16 2 82 C1.67 82 1.34 82 1 82 C0.67 54.94 0.34 27.88 0 0 Z " fill="#E7E9F2" transform="translate(1186,831)"/>
<path d="M0 0 C10.55808656 1.92710706 10.55808656 1.92710706 15 4 C15 4.66 15 5.32 15 6 C16.423125 5.938125 16.423125 5.938125 17.875 5.875 C21 6 21 6 23 8 C14.6852128 8.43762038 7.09817701 6.7753023 -1 5 C-1.96679688 4.81050781 -2.93359375 4.62101563 -3.9296875 4.42578125 C-5.96795182 4.01877959 -7.98770442 3.52042127 -10 3 C-10.33 2.34 -10.66 1.68 -11 1 C-2.42857143 2 -2.42857143 2 1 3 C0.67 2.01 0.34 1.02 0 0 Z " fill="#8A5DD9" transform="translate(277,956)"/>
<path d="M0 0 C5.47767368 5.47767368 3.23715009 19.57891792 3.25976562 26.91992188 C3.19511671 34.96125173 2.28989118 42.25798697 0 50 C-0.33 50 -0.66 50 -1 50 C-1.33 46.7 -1.66 43.4 -2 40 C-1.01 39.505 -1.01 39.505 0 39 C0 26.13 0 13.26 0 0 Z " fill="#F4C12B" transform="translate(414,844)"/>
<path d="M0 0 C12.54 0 25.08 0 38 0 C37.34 1.65 36.68 3.3 36 5 C35.505 3.515 35.505 3.515 35 2 C23.45 2 11.9 2 0 2 C0 1.34 0 0.68 0 0 Z " fill="#222948" transform="translate(1571,806)"/>
<path d="M0 0 C12.54 0 25.08 0 38 0 C37.67 0.99 37.34 1.98 37 3 C24.79 3 12.58 3 0 3 C0 2.01 0 1.02 0 0 Z " fill="#242A49" transform="translate(1825,806)"/>
<path d="M0 0 C0.33 1.32 0.66 2.64 1 4 C0.34 4 -0.32 4 -1 4 C-1.33 5.65 -1.66 7.3 -2 9 C-2.66 9 -3.32 9 -4 9 C-4 9.66 -4 10.32 -4 11 C-5 12 -6 13 -7 14 C-7.6496875 15.1446875 -7.6496875 15.1446875 -8.3125 16.3125 C-11.81370999 21.8885011 -15.44471033 25.43921674 -22 27 C-19.02167791 23.44054189 -16.08199295 20.03949226 -12.6875 16.875 C-7.61776267 11.93030103 -3.89600726 5.87493159 0 0 Z " fill="#FAEDBF" transform="translate(404,916)"/>
<path d="M0 0 C1.5 1.3125 1.5 1.3125 3 3 C3 3.99 3 4.98 3 6 C4.32 6.33 5.64 6.66 7 7 C7 7.99 7 8.98 7 10 C7.99 10.33 8.98 10.66 10 11 C12.08097129 13.3410927 13.80550471 15.66405359 15.375 18.375 C17.56004426 21.90468689 20.24478353 24.90595432 23 28 C20.0429903 26.66682603 17.94683565 25.20298906 15.65234375 22.91796875 C15.04712891 22.31533203 14.44191406 21.71269531 13.81835938 21.09179688 C13.19767578 20.46337891 12.57699219 19.83496094 11.9375 19.1875 C11.31294922 18.57068359 10.68839844 17.95386719 10.04492188 17.31835938 C2 9.23909418 2 9.23909418 2 4 C1.34 4 0.68 4 0 4 C0 2.68 0 1.36 0 0 Z " fill="#C24BB1" transform="translate(241,918)"/>
<path d="M0 0 C-0.33 0.99 -0.66 1.98 -1 3 C-2.02738281 3.02578125 -3.05476563 3.0515625 -4.11328125 3.078125 C-11.93320229 3.36754153 -18.51773416 3.99401072 -25.765625 7.2578125 C-28.3047241 8.10121955 -29.51988015 7.89875903 -32 7 C-23.36653579 1.06449336 -10.31100443 -0.46868202 0 0 Z " fill="#DC439B" transform="translate(316,770)"/>
<path d="M0 0 C3.27650659 3.27650659 4.05692518 7.07196899 5 11.5 C5.96555481 16.02089229 7.21360039 19.7475858 9.6875 23.6875 C10.120625 24.450625 10.55375 25.21375 11 26 C10.67 26.66 10.34 27.32 10 28 C4.2591676 22.68320635 0.42352098 13.41566191 -0.18359375 5.65234375 C-0.18691845 3.76723848 -0.10267146 1.88231015 0 0 Z " fill="#AD4FC5" transform="translate(230,890)"/>
<path d="M0 0 C0.66 0.66 1.32 1.32 2 2 C0.79601563 2.03738281 -0.40796875 2.07476563 -1.6484375 2.11328125 C-3.22399011 2.17892928 -4.79950954 2.24537701 -6.375 2.3125 C-7.1690625 2.33505859 -7.963125 2.35761719 -8.78125 2.38085938 C-10.86215581 2.47785075 -12.93441332 2.72994825 -15 3 C-15.99 4.485 -15.99 4.485 -17 6 C-20.625 6.1875 -20.625 6.1875 -24 6 C-24 5.34 -24 4.68 -24 4 C-16.17350202 -0.03948283 -8.76184748 -1.0127942 0 0 Z " fill="#E3E5F0" transform="translate(1804,738)"/>
<path d="M0 0 C0.33 0 0.66 0 1 0 C1.22236782 3.06206505 1.42834898 6.12376646 1.625 9.1875 C1.68945312 10.05181641 1.75390625 10.91613281 1.8203125 11.80664062 C2.10046459 16.37662165 2.2531859 19.846226 0 24 C-0.33 24 -0.66 24 -1 24 C-1.02901394 20.5625177 -1.04680335 17.12506688 -1.0625 13.6875 C-1.07087891 12.71103516 -1.07925781 11.73457031 -1.08789062 10.72851562 C-1.09111328 9.79072266 -1.09433594 8.85292969 -1.09765625 7.88671875 C-1.10551147 6.59060669 -1.10551147 6.59060669 -1.11352539 5.26831055 C-1 3 -1 3 0 0 Z " fill="#1D1E3F" transform="translate(658,766)"/>
<path d="M0 0 C0 4.06678478 -1.64489919 5.72902666 -4 9 C-4.639375 9.9075 -5.27875 10.815 -5.9375 11.75 C-8.17417065 14.19000435 -9.86616606 15.04243963 -13 16 C-8.93866463 10.40636594 -4.6208599 5.14036486 0 0 Z " fill="#7D5ED4" transform="translate(181,633)"/>
<path d="M0 0 C3.78806451 0.60636284 6.82895704 1.71161456 10.25 3.4375 C11.12140625 3.86933594 11.9928125 4.30117188 12.890625 4.74609375 C15 6 15 6 16 8 C12.21193549 7.39363716 9.17104296 6.28838544 5.75 4.5625 C4.87859375 4.13066406 4.0071875 3.69882812 3.109375 3.25390625 C1 2 1 2 0 0 Z " fill="#D147A5" transform="translate(269,950)"/>
<path d="M0 0 C0.33 0.99 0.66 1.98 1 3 C-3.39042858 6.42453429 -6.2902045 8.58221009 -12 9 C-8.53005564 5.0963126 -4.44775994 2.63411025 0 0 Z " fill="#F6EFE0" transform="translate(381,943)"/>
<path d="M0 0 C0 3.6404329 -0.63096927 4.06307093 -3.125 6.5625 C-6.19262122 9.5239103 -8.7640173 11.07015014 -13 12 C-9.3781677 7.4277578 -5.99758524 4.02179573 -1 1 C-0.67 0.67 -0.34 0.34 0 0 Z " fill="#F6EFD8" transform="translate(395,931)"/>
<path d="M0 0 C1.54248331 3.08496663 0.2507412 5.1479722 -0.75 8.375 C-1.09546875 9.51710938 -1.4409375 10.65921875 -1.796875 11.8359375 C-2.89461765 14.7228581 -4.00617217 16.67386753 -6 19 C-5.52877252 12.0886636 -2.79363994 6.27795839 0 0 Z " fill="#805DD8" transform="translate(142,694)"/>
<path d="M0 0 C2.31 0.66 4.62 1.32 7 2 C7 2.66 7 3.32 7 4 C8.423125 3.938125 8.423125 3.938125 9.875 3.875 C13 4 13 4 15 6 C12.03 6 9.06 6 6 6 C5.67 5.01 5.34 4.02 5 3 C3.35 2.67 1.7 2.34 0 2 C0 1.34 0 0.68 0 0 Z " fill="#A954C4" transform="translate(285,958)"/>
<path d="M0 0 C3.32643967 2.98232523 5.29152862 5.86370087 7 10 C6.67 10.66 6.34 11.32 6 12 C4.5 10.625 4.5 10.625 3 9 C3 8.34 3 7.68 3 7 C2.01 7 1.02 7 0 7 C0 4.69 0 2.38 0 0 Z " fill="#F7C43D" transform="translate(402,817)"/>
<path d="M0 0 C-2.07772471 0.86772029 -4.16243177 1.71873619 -6.25 2.5625 C-7.99023438 3.27599609 -7.99023438 3.27599609 -9.765625 4.00390625 C-12.86266644 4.95770524 -14.07321701 5.20983356 -17 4 C-11.83084406 0.44620529 -6.17192006 -1.92442942 0 0 Z " fill="#CE47AA" transform="translate(301,773)"/>
<path d="M0 0 C1.32 0.33 2.64 0.66 4 1 C0.37 3.31 -3.26 5.62 -7 8 C-7.33 7.34 -7.66 6.68 -8 6 C-7.34 6 -6.68 6 -6 6 C-6 5.01 -6 4.02 -6 3 C-5.34 3 -4.68 3 -4 3 C-3.67 2.34 -3.34 1.68 -3 1 C-2.01 1.33 -1.02 1.66 0 2 C0 1.34 0 0.68 0 0 Z " fill="#F2C229" transform="translate(377,943)"/>
<path d="M0 0 C2.0625 -0.4375 2.0625 -0.4375 5 0 C7.57260172 2.12080183 9.79254499 4.50627561 12 7 C11.34 7.66 10.68 8.32 10 9 C9.52949219 8.51789062 9.05898437 8.03578125 8.57421875 7.5390625 C7.95160156 6.90742187 7.32898437 6.27578125 6.6875 5.625 C6.07261719 4.99851562 5.45773437 4.37203125 4.82421875 3.7265625 C2.91187472 1.81913393 2.91187472 1.81913393 0 0 Z " fill="#242745" transform="translate(1266,723)"/>
<path d="M0 0 C-1.59910868 1.00806851 -3.20448262 2.00620385 -4.8125 3 C-6.15248047 3.8353125 -6.15248047 3.8353125 -7.51953125 4.6875 C-10 6 -10 6 -13 6 C-11.31422207 2.23179051 -10.4251507 1.16702349 -6.5 -0.375 C-3 -1 -3 -1 0 0 Z " fill="#131536" transform="translate(1046,703)"/>
<path d="M0 0 C1.98 1.65 3.96 3.3 6 5 C5.34 5.66 4.68 6.32 4 7 C3.34 6.67 2.68 6.34 2 6 C2 7.98 2 9.96 2 12 C1.67 12 1.34 12 1 12 C0.67 8.04 0.34 4.08 0 0 Z " fill="#DCE1ED" transform="translate(1186,831)"/>
<path d="M0 0 C0.33 0 0.66 0 1 0 C1.66 4.62 2.32 9.24 3 14 C2.34 14 1.68 14 1 14 C-1.61895048 9.22426677 -0.83119431 5.15565119 0 0 Z " fill="#E0E2EE" transform="translate(1475,790)"/>
<path d="M0 0 C2.27795022 2.27795022 3.05219877 3.93787293 4 7 C3.625 9.3125 3.625 9.3125 3 11 C1.5 10 1.5 10 0 8 C-0.27345479 5.28153765 -0.13491285 2.74322801 0 0 Z " fill="#BD4BB9" transform="translate(230,890)"/>
<path d="M0 0 C0.99 0 1.98 0 3 0 C1.87816502 2.24366996 0.60553445 4.07335866 -1 6 C-1.66 6 -2.32 6 -3 6 C-3 6.66 -3 7.32 -3 8 C-3.66 8 -4.32 8 -5 8 C-5.33 8.66 -5.66 9.32 -6 10 C-5.49111733 5.58968355 -2.96550928 3.10672401 0 0 Z " fill="#131536" transform="translate(1493,730)"/>
<path d="M0 0 C0.33 0.66 0.66 1.32 1 2 C-1.19924069 5.35673579 -3.38269598 7.23772368 -7 9 C-7.66 8.67 -8.32 8.34 -9 8 C-6.03 5.36 -3.06 2.72 0 0 Z " fill="#8561DB" transform="translate(191,624)"/>
<path d="M0 0 C1.65 0 3.3 0 5 0 C5.33 0.99 5.66 1.98 6 3 C9.00007271 4.70855022 9.00007271 4.70855022 12 6 C11.01 6.33 10.02 6.66 9 7 C6.73828125 5.8203125 6.73828125 5.8203125 4.3125 4.125 C3.50425781 3.57070313 2.69601562 3.01640625 1.86328125 2.4453125 C1.24839844 1.96835937 0.63351562 1.49140625 0 1 C0 0.67 0 0.34 0 0 Z " fill="#13163A" transform="translate(1014,837)"/>
<path d="M0 0 C2.93200474 2.85276137 5.64315404 5.65079784 8 9 C5 9 5 9 2 7 C0.8125 3.375 0.8125 3.375 0 0 Z " fill="#222546" transform="translate(1191,804)"/>
<path d="M0 0 C-3.69172595 3.53790403 -7.09390595 3.59115883 -12 4 C-11 2 -11 2 -8.8125 0.875 C-5.73230669 -0.08328236 -3.20690052 -0.14915816 0 0 Z " fill="#F5C12A" transform="translate(356,957)"/>
<path d="M0 0 C0.99 0.33 1.98 0.66 3 1 C1.8125 3.5 1.8125 3.5 0 6 C-2.6875 6.3125 -2.6875 6.3125 -5 6 C-3.35 4.02 -1.7 2.04 0 0 Z " fill="#E3E5F2" transform="translate(1595,830)"/>
<path d="M0 0 C-4.39251833 2.02055843 -8.15340923 3.40895235 -13 4 C-10.54372898 0.95422393 -9.2675888 0.0599768 -5.375 -0.8125 C-2 -1 -2 -1 0 0 Z " fill="#E5418E" transform="translate(290,778)"/>
<path d="M0 0 C1.32 0 2.64 0 4 0 C3.25 1.9375 3.25 1.9375 2 4 C-0.125 4.75 -0.125 4.75 -2 5 C-2 2 -2 2 0 0 Z " fill="#E7E8F2" transform="translate(1495,723)"/>
<path d="M0 0 C0.66 0.33 1.32 0.66 2 1 C2 1.66 2 2.32 2 3 C0.02 3.99 -1.96 4.98 -4 6 C-4.33 5.01 -4.66 4.02 -5 3 C-4.34 3 -3.68 3 -3 3 C-3 2.34 -3 1.68 -3 1 C-2.01 0.67 -1.02 0.34 0 0 Z " fill="#232550" transform="translate(917,840)"/>
<path d="M0 0 C0.99 0.33 1.98 0.66 3 1 C1.73295613 3.53408774 0.56876843 3.93209972 -1.9375 5.1875 C-2.64777344 5.55230469 -3.35804688 5.91710937 -4.08984375 6.29296875 C-4.72019531 6.52628906 -5.35054688 6.75960937 -6 7 C-6.66 6.67 -7.32 6.34 -8 6 C-6.7391988 4.96680187 -5.46596742 3.94875621 -4.1875 2.9375 C-3.47980469 2.36902344 -2.77210938 1.80054688 -2.04296875 1.21484375 C-1.36878906 0.81394531 -0.69460938 0.41304687 0 0 Z " fill="#9F52D8" transform="translate(286,773)"/>
<path d="M0 0 C0.66 0.33 1.32 0.66 2 1 C1.67 2.32 1.34 3.64 1 5 C0.34 5 -0.32 5 -1 5 C-1 5.99 -1 6.98 -1 8 C-1.66 8 -2.32 8 -3 8 C-1.125 1.125 -1.125 1.125 0 0 Z " fill="#1E224B" transform="translate(1678,725)"/>
<path d="M0 0 C1.32 0.33 2.64 0.66 4 1 C4 1.66 4 2.32 4 3 C4.99 3 5.98 3 7 3 C7 3.66 7 4.32 7 5 C6.01 5.33 5.02 5.66 4 6 C2.62437146 4.71034824 1.29233607 3.37310707 0 2 C0 1.34 0 0.68 0 0 Z " fill="#232A49" transform="translate(847,833)"/>
<path d="M0 0 C0 3.99904969 -1.72586967 5.80200422 -4 9 C-4.33 8.01 -4.66 7.02 -5 6 C-3.59554165 3.7363436 -1.8032087 1.9791315 0 0 Z " fill="#8562DD" transform="translate(181,633)"/>
<path d="M0 0 C-3.08888522 2.05925681 -3.70935927 2.2390374 -7.1875 2.125 C-9.0746875 2.063125 -9.0746875 2.063125 -11 2 C-6.98764085 -0.6749061 -4.6342454 -1.48957888 0 0 Z " fill="#FCEDBD" transform="translate(352,961)"/>
<path d="M0 0 C0.33 0.99 0.66 1.98 1 3 C-2.75 6 -2.75 6 -5 6 C-5 5.01 -5 4.02 -5 3 C-2.5 1.3125 -2.5 1.3125 0 0 Z " fill="#E9EBF4" transform="translate(1265,841)"/>
<path d="M0 0 C0 0.66 0 1.32 0 2 C-0.99 2.495 -0.99 2.495 -2 3 C-2.99 4.485 -2.99 4.485 -4 6 C-4.99 4.68 -5.98 3.36 -7 2 C-4.35261084 0.5393715 -3.10551666 0 0 0 Z " fill="#F7EFD9" transform="translate(400,802)"/>
<path d="M0 0 C0 0.99 0 1.98 0 3 C-2.64 3.33 -5.28 3.66 -8 4 C-8 3.34 -8 2.68 -8 2 C-5.09399739 0.74335022 -3.20395416 0 0 0 Z " fill="#26284D" transform="translate(1778,712)"/>
<path d="M0 0 C1.65 0.33 3.3 0.66 5 1 C2.06171403 3.50298434 -0.17902761 4.46930939 -4 5 C-4 4.34 -4 3.68 -4 3 C-2.68 3 -1.36 3 0 3 C0 2.01 0 1.02 0 0 Z " fill="#F7BF27" transform="translate(360,952)"/>
<path d="M0 0 C0.66 0.33 1.32 0.66 2 1 C0.875 2.9375 0.875 2.9375 -1 5 C-4.1875 5.75 -4.1875 5.75 -7 6 C-4.74259377 3.66475218 -2.7194239 1.81294927 0 0 Z " fill="#FCECC0" transform="translate(376,946)"/>
<path d="M0 0 C1.09658936 3.28976808 0.79953138 4.71303767 0 8 C-0.99 8 -1.98 8 -3 8 C-3 6.68 -3 5.36 -3 4 C-2.34 4 -1.68 4 -1 4 C-0.67 2.68 -0.34 1.36 0 0 Z " fill="#0D1239" transform="translate(1355,758)"/>
<path d="M0 0 C2.97 0.495 2.97 0.495 6 1 C6 1.99 6 2.98 6 4 C4.02 3.34 2.04 2.68 0 2 C0 1.34 0 0.68 0 0 Z " fill="#E3E2ED" transform="translate(1808,740)"/>
</svg>
